<svg xmlns="http://www.w3.org/2000/svg" version="1.1" xmlns:xlink="http://www.w3.org/1999/xlink" xmlns:svgjs="http://svgjs.dev/svgjs" width="1500" height="295" viewBox="0 0 1500 295"><g transform="matrix(1,0,0,1,-0.917766726779405,-0.3638076218319668)"><svg viewBox="0 0 396 78" data-background-color="#ffffff" preserveAspectRatio="xMidYMid meet" height="295" width="1500" xmlns="http://www.w3.org/2000/svg" xmlns:xlink="http://www.w3.org/1999/xlink"><g id="tight-bounds" transform="matrix(1,0,0,1,0.24229041586977473,0.09619320170472179)"><svg viewBox="0 0 395.52 77.80761359659056" height="77.80761359659056" width="395.52"><g><svg viewBox="0 0 395.52 77.80761359659056" height="77.80761359659056" width="395.52"><g><svg viewBox="0 0 395.52 77.80761359659056" height="77.80761359659056" width="395.52"><g id="textblocktransform"><svg viewBox="0 0 395.52 77.80761359659056" height="77.80761359659056" width="395.52" id="textblock"><g><svg viewBox="0 0 395.52 77.80761359659056" height="77.80761359659056" width="395.52"><g transform="matrix(1,0,0,1,0,0)"><svg width="395.52" viewBox="1.0406250000000001 -36 186.789375 36.75" height="77.80761359659056" data-palette-color="#ea3c12"><path d="M24.65-0.7Q24.8-0.35 24.8-0.2L24.8-0.2Q24.8 0 24.25 0L24.25 0 21.45 0Q21.25 0 21.13-0.08 21-0.15 20.9-0.45L20.9-0.45Q20.7-1 20.35-2.25L20.35-2.25Q19.9-3.5 19.75-4.5L19.75-4.5Q19.6-5.25 19.28-6.3 18.95-7.35 18.7-7.9L18.7-7.9Q18.25-8.85 17.9-10.05L17.9-10.05 17.45-11.5Q17.2-12.05 17.07-12.18 16.95-12.3 16.65-12.3L16.65-12.3Q15.6-12.3 15.1-12.25L15.1-12.25 12.95-12.15Q12.55-12.1 9.25-12.1L9.25-12.1 6.2-12.1 6.1-12.1Q5.8-12.1 5.65-11.55L5.65-11.55 5.55-11.05 5.35-10.1Q5.25-9.85 4.7-7.2L4.7-7.2Q4.55-6.35 4.2-5L4.2-5Q4.1-4 3.75-3.35L3.75-3.35Q3.65-3.2 3.5-2.65 3.35-2.1 3.25-1.75L3.25-1.75Q3.1-1.35 2.9-0.45L2.9-0.45Q2.85-0.4 2.8-0.23 2.75-0.05 2.65-0.03 2.55 0 2.35 0L2.35 0 1.35 0Q0.9 0 1.1-0.65L1.1-0.65Q1.1-0.8 1.15-0.9L1.15-0.9Q1.15-1 1.2-1.15 1.25-1.3 1.35-1.6L1.35-1.6 1.8-3.45Q1.9-3.75 2.15-4.5 2.4-5.25 2.5-5.9L2.5-5.9Q2.75-7.1 3.45-9.55L3.45-9.55 3.85-10.95Q4.8-14.05 5.05-15.3L5.05-15.3 5.75-17.95Q6.25-19.6 6.35-20.05L6.35-20.05Q6.7-21.55 7.35-23.8L7.35-23.8 7.7-25.2 8-26.25Q8.5-27.95 8.85-28.7L8.85-28.7Q8.95-29 9.58-30.78 10.2-32.55 10.4-33.6L10.4-33.6Q10.75-34.8 11.13-35.4 11.5-36 12.15-36L12.15-36Q12.4-36 12.65-35.55 12.9-35.1 13.15-34.45 13.4-33.8 13.5-33.5L13.5-33.5Q13.9-32.55 14.9-28.75L14.9-28.75 15.3-27.35Q15.35-26.95 16.95-22.45L16.95-22.45 17.9-19.7 18.8-17.35Q20.2-13.4 20.6-12.55L20.6-12.55Q22.35-7.25 22.65-6.15L22.65-6.15Q23-4.85 23.78-2.9 24.55-0.95 24.65-0.7L24.65-0.7ZM15.3-15.55Q15.95-15.55 15.95-15.9L15.95-15.9Q15.95-16.15 15.6-17L15.6-17Q15.3-17.75 14.7-19.8L14.7-19.8Q14.25-21.45 13.8-22.65L13.8-22.65Q13.3-24.15 12.73-26.2 12.15-28.25 12.05-28.85L12.05-28.85Q11.3-31.5 11.05-31.5L11.05-31.5Q10.9-31.5 10.55-30.15L10.55-30.15 10.25-29.05Q9.9-27.7 9.35-25.68 8.8-23.65 8.35-22.25L8.35-22.25Q8.05-20.95 7.53-18.98 7-17 6.7-16.25L6.7-16.25Q6.6-15.95 6.6-15.9L6.6-15.9Q6.6-15.55 6.93-15.45 7.25-15.35 7.58-15.38 7.9-15.4 8-15.4L8-15.4 10.9-15.5Q11.5-15.6 12.6-15.6L12.6-15.6 15.3-15.55ZM51.1-2.05Q52.45-0.7 52.45-0.2L52.45-0.2Q52.45-0.1 52.2 0.15L52.2 0.15Q51.75 0.45 49.95 0.45L49.95 0.45Q48.65 0.45 48.3 0.28 47.95 0.1 47.77-0.3 47.6-0.7 47.5-0.9L47.5-0.9Q47.35-1.2 46.27-2.63 45.2-4.05 44.65-4.8L44.65-4.8Q42-8.2 40.05-10.95L40.05-10.95Q38.85-12.65 35.6-16.8L35.6-16.8 34.8-17.8 31.35-22.1 31.15-20.1Q30.95-18.6 31.05-16.5L31.05-16.5Q31.2-15.1 31.25-9.25 31.3-3.4 31.3-0.7L31.3-0.7Q31.3 0.1 30.7 0.33 30.1 0.55 29.3 0.55L29.3 0.55Q28.95 0.55 28.85 0.25 28.75-0.05 28.72-0.4 28.7-0.75 28.7-0.85L28.7-0.85Q28.6-1.65 28.6-3.2L28.6-3.2Q28.6-4.2 28.65-4.7L28.65-4.7Q28.7-7.4 28.8-14.13 28.9-20.85 28.9-26.2L28.9-26.2Q28.9-31.95 28.75-32.9L28.75-32.9Q28.7-33.3 28.7-33.95L28.7-33.95Q28.7-34.7 28.92-34.9 29.15-35.1 29.6-35.1L29.6-35.1Q30.6-35.1 31.55-35.05L31.55-35.05 37-34.95Q40-34.95 43.25-33.9 46.5-32.85 46.5-30L46.5-30Q46.5-27.3 44.5-25.8 42.5-24.3 40.02-23.75 37.55-23.2 35.7-23.2L35.7-23.2Q35.05-23.2 35-23.25L35-23.25Q35.3-22.95 38.95-17.95L38.95-17.95Q49.95-3.2 51.1-2.05L51.1-2.05ZM31.2-25.25Q32.85-25.25 33.7-25.3L33.7-25.3Q36.6-25.4 38.2-25.7L38.2-25.7Q40.5-26.1 41.67-26.8 42.85-27.5 42.85-29L42.85-29Q42.85-30 41.8-30.73 40.75-31.45 39.27-31.83 37.8-32.2 36.7-32.2L36.7-32.2Q35.45-32.25 33.2-32.25L33.2-32.25 31.5-32.25 31.2-25.25ZM80.09-35.95Q80.7-35.9 80.82-35.65 80.95-35.4 80.92-34.98 80.9-34.55 80.9-34.35L80.9-34.35Q80.95-33.7 80.65-33.45 80.34-33.2 79.7-33.2L79.7-33.2Q79.3-33.2 78.17-33.15 77.05-33.1 75.45-33.15L75.45-33.15 75.25-33.15 75.15-24.1 75.09-15.3Q75.09-13.3 75.32-10.23 75.55-7.15 75.59-6.35L75.59-6.35Q75.9-2.35 75.9-1.85L75.9-1.85Q75.95-0.85 75.45-0.55 74.95-0.25 73.7-0.25L73.7-0.25 71.5-0.3Q71.25-0.3 63.3-0.45L63.3-0.45 60.2-0.5Q59.7-0.5 59.7-1.5L59.7-1.5Q59.7-1.85 59.8-2.85L59.8-2.85Q59.9-4.15 59.9-4.85L59.9-4.85Q59.8-6.15 59.8-9.4L59.8-9.4Q59.8-13.75 59.92-18.7 60.05-23.65 60.25-26.15L60.25-26.15Q60.35-27.45 60.35-29.65L60.35-29.65Q60.35-32.1 60.2-33.35L60.2-33.35 59.3-33.4 55.15-33.3Q54.75-33.3 54.75-34.1L54.75-34.1 54.8-35.2Q54.8-35.6 54.92-35.73 55.05-35.85 55.35-35.85L55.35-35.85Q55.55-35.85 55.85-35.8 56.15-35.75 56.55-35.75L56.55-35.75 67.2-35.8 75.9-35.9Q77.95-35.95 80.09-35.95L80.09-35.95ZM86.94-35.25Q87.59-35.2 88.22-35.23 88.84-35.25 89.29-35.25L89.29-35.25Q90.39-35.25 90.89-35.2L90.89-35.2Q91.49-35.15 91.74-34.95 91.99-34.75 91.99-34.4L91.99-34.4Q91.99-34.15 91.94-33.85 91.89-33.55 91.84-33.3L91.84-33.3Q91.29-29.05 91.24-24.55L91.24-24.55Q91.19-23.25 91.19-20.55L91.19-20.55 91.24-14.5Q91.29-13.75 91.29-12.95L91.29-12.95 91.34-10.95Q91.44-8.35 91.44-7.1L91.44-7.1Q91.44-6.15 91.39-5.95L91.39-5.95Q91.34-5.75 91.34-4.8L91.34-4.8 91.39-2.05Q91.44-1.45 91.44-0.55L91.44-0.55Q91.49 0.1 91.07 0.28 90.64 0.45 89.94 0.4L89.94 0.4 85.39 0.4Q84.64 0.45 84.44 0.08 84.24-0.3 84.19-1.15L84.19-1.15Q84.09-1.5 84.29-3L84.29-3Q84.49-4.4 84.49-5.4L84.49-5.4Q84.49-5.75 84.84-12.15L84.84-12.15Q85.14-16.85 85.14-17.3L85.14-17.3 85.24-22.2 85.34-26.75 85.44-29.45 85.54-31.25 85.54-33.35Q85.54-35.3 86.54-35.3L86.54-35.3Q86.79-35.3 86.94-35.25L86.94-35.25ZM108.19-35.25Q112.54-35.25 114.64-33.55 116.74-31.85 116.84-31.75L116.84-31.75Q117.34-31.4 117.34-31.05L117.34-31.05Q117.34-30.85 117.14-30.65L117.14-30.65Q116.99-30.45 116.54-29.8 116.09-29.15 115.84-29.15L115.84-29.15Q115.59-29.15 115.19-29.4L115.19-29.4 114.84-29.7Q111.04-32.45 108.34-32.45L108.34-32.45Q104.89-32.45 103.12-30.88 101.34-29.3 101.34-26.9L101.34-26.9Q101.34-24.85 102.82-23.4 104.29-21.95 106.69-20.65L106.69-20.65Q107.39-20.35 108.14-20.1L108.14-20.1Q110.64-19.15 112.52-18.07 114.39-17 115.89-14.83 117.39-12.65 117.39-9.35L117.39-9.35Q117.39-3.7 113.54-1.63 109.69 0.45 104.94 0.45L104.94 0.45Q102.19 0.45 99.97-0.8 97.74-2.05 96.79-3L96.79-3Q96.29-3.45 96.54-3.9L96.54-3.9Q96.59-4 96.97-4.7 97.34-5.4 97.64-5.4L97.64-5.4 97.74-5.4Q97.89-5.4 98.02-5.33 98.14-5.25 98.32-5.05 98.49-4.85 98.74-4.6L98.74-4.6Q99.39-3.95 101.29-3.13 103.19-2.3 104.44-2.3L104.44-2.3Q107.09-2.3 109.49-3.43 111.89-4.55 111.89-8.2L111.89-8.2Q111.89-9.75 110.52-10.9 109.14-12.05 106.24-13.6L106.24-13.6 104.09-14.8Q100.59-16.8 98.62-19.1 96.64-21.4 96.64-25.15L96.64-25.15Q96.64-28.25 98.42-30.55 100.19-32.85 102.87-34.05 105.54-35.25 108.19-35.25L108.19-35.25ZM146.29-35.95Q146.89-35.9 147.01-35.65 147.14-35.4 147.11-34.98 147.09-34.55 147.09-34.35L147.09-34.35Q147.14-33.7 146.84-33.45 146.54-33.2 145.89-33.2L145.89-33.2Q145.49-33.2 144.36-33.15 143.24-33.1 141.64-33.15L141.64-33.15 141.44-33.15 141.34-24.1 141.29-15.3Q141.29-13.3 141.51-10.23 141.74-7.15 141.79-6.35L141.79-6.35Q142.09-2.35 142.09-1.85L142.09-1.85Q142.14-0.85 141.64-0.55 141.14-0.25 139.89-0.25L139.89-0.25 137.69-0.3Q137.44-0.3 129.49-0.45L129.49-0.45 126.39-0.5Q125.89-0.5 125.89-1.5L125.89-1.5Q125.89-1.85 125.99-2.85L125.99-2.85Q126.09-4.15 126.09-4.85L126.09-4.85Q125.99-6.15 125.99-9.4L125.99-9.4Q125.99-13.75 126.11-18.7 126.24-23.65 126.44-26.15L126.44-26.15Q126.54-27.45 126.54-29.65L126.54-29.65Q126.54-32.1 126.39-33.35L126.39-33.35 125.49-33.4 121.34-33.3Q120.94-33.3 120.94-34.1L120.94-34.1 120.99-35.2Q120.99-35.6 121.11-35.73 121.24-35.85 121.54-35.85L121.54-35.85Q121.74-35.85 122.04-35.8 122.34-35.75 122.74-35.75L122.74-35.75 133.39-35.8 142.09-35.9Q144.14-35.95 146.29-35.95L146.29-35.95ZM153.14-35.25Q153.79-35.2 154.41-35.23 155.04-35.25 155.49-35.25L155.49-35.25Q156.59-35.25 157.09-35.2L157.09-35.2Q157.69-35.15 157.94-34.95 158.19-34.75 158.19-34.4L158.19-34.4Q158.19-34.15 158.14-33.85 158.09-33.55 158.04-33.3L158.04-33.3Q157.49-29.05 157.44-24.55L157.44-24.55Q157.39-23.25 157.39-20.55L157.39-20.55 157.44-14.5Q157.49-13.75 157.49-12.95L157.49-12.95 157.54-10.95Q157.64-8.35 157.64-7.1L157.64-7.1Q157.64-6.15 157.59-5.95L157.59-5.95Q157.54-5.75 157.54-4.8L157.54-4.8 157.59-2.05Q157.64-1.45 157.64-0.55L157.64-0.55Q157.69 0.1 157.26 0.28 156.84 0.45 156.14 0.4L156.14 0.4 151.59 0.4Q150.84 0.45 150.64 0.08 150.44-0.3 150.39-1.15L150.39-1.15Q150.29-1.5 150.49-3L150.49-3Q150.69-4.4 150.69-5.4L150.69-5.4Q150.69-5.75 151.04-12.15L151.04-12.15Q151.34-16.85 151.34-17.3L151.34-17.3 151.44-22.2 151.54-26.75 151.64-29.45 151.74-31.25 151.74-33.35Q151.74-35.3 152.74-35.3L152.74-35.3Q152.99-35.3 153.14-35.25L153.14-35.25ZM175.23-36Q179.33-36 181.43-34.52 183.53-33.05 184.36-31.83 185.18-30.6 185.38-30.3L185.38-30.3Q185.88-29.65 185.88-29.3L185.88-29.3Q185.88-29 185.68-28.8 185.48-28.6 185.18-28.45 184.88-28.3 184.78-28.2L184.78-28.2Q184.18-27.8 183.18-26.95L183.18-26.95Q182.73-26.6 181.86-25.93 180.98-25.25 180.68-25.1L180.68-25.1Q180.48-24.95 180.28-24.95L180.28-24.95Q179.93-24.95 179.63-25.35 179.33-25.75 179.23-25.9L179.23-25.9Q179.13-26.05 178.71-26.55 178.28-27.05 177.63-27.4 176.98-27.75 176.18-27.75L176.18-27.75Q174.68-27.75 173.83-25.8 172.98-23.85 172.98-18.85L172.98-18.85Q172.98-15.55 173.53-13.45 174.08-11.35 174.86-10.43 175.63-9.5 176.33-9.5L176.33-9.5Q177.33-9.5 177.86-9.95 178.38-10.4 178.78-11.65L178.78-11.65Q179.18-12.85 180.08-12.85L180.08-12.85Q180.38-12.85 180.76-12.75 181.13-12.65 181.33-12.6L181.33-12.6Q181.83-12.4 183.78-11.98 185.73-11.55 187.13-11.3L187.13-11.3Q187.83-11.15 187.83-10.1L187.83-10.1Q187.83-9.6 187.78-9.35L187.78-9.35Q187.73-8.7 187.38-7.6L187.38-7.6Q186.33-4.4 183.81-1.83 181.28 0.75 176.28 0.75L176.28 0.75Q173.23 0.75 170.13-1.1 167.03-2.95 164.88-7.28 162.73-11.6 162.73-18.65L162.73-18.65Q162.73-28.65 166.58-32.33 170.43-36 175.23-36L175.23-36Z" opacity="1" transform="matrix(1,0,0,1,0,0)" fill="#ea3c12" class="wordmark-text-0" data-fill-palette-color="primary" id="text-0"></path></svg></g></svg></g></svg></g></svg></g></svg></g><defs></defs></svg><rect width="395.52" height="77.80761359659056" fill="none" stroke="none" visibility="hidden"></rect></g></svg></g></svg>